<?xml version="1.0" encoding="UTF-8" standalone="no"?>
<svg width="110px" height="110px" viewBox="0 0 110 110" version="1.1" xmlns="http://www.w3.org/2000/svg" xmlns:xlink="http://www.w3.org/1999/xlink">
    <!-- Generator: Sketch 43.2 (39069) - http://www.bohemiancoding.com/sketch -->
    <title>Slice 1</title>
    <desc>Created with Sketch.</desc>
    <g id="Page-1" stroke="none" stroke-width="1" fill="none" fill-rule="evenodd">
        <g id="Group">
            <circle id="Oval" fill="#FFFC00" cx="55" cy="55" r="55"/>
            <g id="snap-ghost" transform="translate(33.000000, 33.000000)">
                <path d="M22.778375,44.5046018 C22.66475,44.5046018 22.55325,44.5011504 22.441625,44.4954425 L22.441375,44.4954425 C22.37025,44.5012832 22.295875,44.5046018 22.2215,44.5046018 C19.610875,44.5046018 17.93525,43.2467257 16.315,42.0301327 C15.196125,41.1906637 14.140375,40.3980531 12.896375,40.1780973 C12.289375,40.0713717 11.68525,40.0172124 11.101375,40.0172124 C10.0495,40.0172124 9.219625,40.189646 8.61375,40.3154867 C8.245625,40.3919469 7.928,40.4576549 7.686625,40.4576549 C7.4345,40.4576549 7.16125,40.3997788 7.0425,39.9688938 C6.93925,39.5956195 6.864625,39.2340265 6.792875,38.8842478 C6.60775,37.984115 6.476375,37.4304425 6.121125,37.3725664 C1.980625,36.6934513 0.7955,35.7673009 0.53125,35.1102212 C0.493875,35.0162389 0.472625,34.9221239 0.4675,34.8289381 C0.454125,34.5764602 0.6225,34.3535841 0.857375,34.3128319 C7.222375,33.1997788 10.07675,26.2912832 10.19525,25.9979204 C10.1985,25.989823 10.201875,25.9819912 10.205375,25.9738938 C10.595,25.1354867 10.67125,24.4077876 10.432875,23.8112389 C9.996125,22.7180973 8.5715,22.2375664 7.6285,21.9199115 C7.39775,21.8423894 7.179,21.769115 7.0065,21.6967699 C5.12475,20.9066814 4.968125,20.095885 5.042125,19.6825221 C5.16825,18.9783186 6.054375,18.4875664 6.771125,18.4875664 C6.967625,18.4875664 7.140625,18.5246018 7.286125,18.5966814 C8.132625,19.0178761 8.895625,19.2311947 9.553875,19.2311947 C10.463375,19.2311947 10.860375,18.8252655 10.908875,18.7720354 C10.88575,18.3146018 10.857125,17.8368584 10.827875,17.3438496 C10.63825,14.1481858 10.403375,10.1773009 11.355375,7.91070796 C14.20875,1.11650442 20.25975,0.588716814 22.04625,0.588716814 C22.092,0.588716814 22.8295,0.580353982 22.8295,0.580353982 L22.93525,0.579955752 C24.725875,0.579955752 30.79,1.10867257 33.645,7.90659292 C34.59725,10.1743805 34.36175,14.1485841 34.171875,17.3418584 L34.164,17.480708 C34.13775,17.9253982 34.11225,18.3576106 34.091,18.7713717 C34.1365,18.8206195 34.501625,19.1940265 35.32625,19.2274779 L35.327125,19.2274779 C35.95375,19.2019912 36.674,18.9898673 37.464375,18.5966814 C37.696,18.4818584 37.95325,18.4576991 38.128375,18.4576991 C38.395875,18.4576991 38.667,18.5126549 38.892125,18.6123451 L38.90575,18.6183186 C39.545125,18.8588496 39.963875,19.3347345 39.972875,19.8319912 C39.981125,20.300177 39.644625,21.004115 37.9935,21.6967699 C37.822375,21.7681858 37.603625,21.8419912 37.372,21.9199115 C36.428,22.2380973 35.00375,22.7180973 34.56725,23.8111062 C34.32875,24.4072566 34.405125,25.1345575 34.7945,25.9733628 C34.798,25.9814602 34.802,25.989292 34.805,25.9979204 C34.923375,26.2910177 37.77525,33.1975221 44.143,34.3119027 C44.378125,34.3530531 44.546,34.5756637 44.533125,34.8284071 C44.52775,34.9230531 44.506125,35.0184956 44.468,35.1111504 C44.205375,35.7635841 43.02125,36.6885398 38.87925,37.3681858 C38.540875,37.4234071 38.40975,37.8915929 38.20775,38.8734956 C38.134375,39.2308407 38.06,39.5818142 37.957625,39.9509735 C37.8695,40.2712832 37.6815,40.4211504 37.36525,40.4211504 L37.31375,40.4211504 C37.09425,40.4211504 36.78225,40.379469 36.386875,40.2970354 C35.685625,40.1514159 34.899375,40.0172124 33.899125,40.0172124 C33.315,40.0172124 32.7105,40.0713717 32.103125,40.1780973 C30.8605,40.3980531 29.805375,41.1890708 28.688625,42.0274779 C27.065125,43.2467257 25.38975,44.5046018 22.778375,44.5046018" id="Fill-1" fill="#FFFFFF" stroke="#0B0C09" stroke-width="1"/>
            </g>
        </g>
    </g>
</svg>